<svg width="441" height="85" viewBox="0 0 441 85" fill="none" xmlns="http://www.w3.org/2000/svg">
<path d="M63 9.10714C62.9974 6.69255 62.0009 4.37757 60.2293 2.67019C58.4576 0.962818 56.0555 0.00251128 53.55 0H9.45C6.9445 0.00251128 4.54237 0.962818 2.77072 2.67019C0.999065 4.37757 0.00260582 6.69255 0 9.10714V75.8929C0.00260582 78.3075 0.999065 80.6224 2.77072 82.3298C4.54237 84.0372 6.9445 84.9975 9.45 85H53.55C56.0555 84.9975 58.4576 84.0372 60.2293 82.3298C62.0009 80.6224 62.9974 78.3075 63 75.8929V9.10714ZM14.175 75.8929C13.2405 75.8929 12.327 75.6258 11.5499 75.1254C10.7729 74.6251 10.1673 73.9139 9.80967 73.0819C9.45205 72.2498 9.35847 71.3342 9.54079 70.4509C9.7231 69.5676 10.1731 68.7563 10.8339 68.1194C11.4947 67.4826 12.3366 67.0489 13.2532 66.8732C14.1698 66.6975 15.1198 66.7877 15.9832 67.1323C16.8466 67.477 17.5845 68.0606 18.1037 68.8095C18.6229 69.5583 18.9 70.4387 18.9 71.3393C18.9 72.547 18.4022 73.7052 17.5161 74.5591C16.63 75.4131 15.4281 75.8929 14.175 75.8929ZM14.175 60.7143C13.2405 60.7143 12.327 60.4472 11.5499 59.9469C10.7729 59.4465 10.1673 58.7353 9.80967 57.9033C9.45205 57.0712 9.35847 56.1557 9.54079 55.2724C9.7231 54.3891 10.1731 53.5777 10.8339 52.9409C11.4947 52.304 12.3366 51.8703 13.2532 51.6946C14.1698 51.5189 15.1198 51.6091 15.9832 51.9538C16.8466 52.2984 17.5845 52.8821 18.1037 53.6309C18.6229 54.3797 18.9 55.2601 18.9 56.1607C18.9 57.3684 18.4022 58.5266 17.5161 59.3806C16.63 60.2345 15.4281 60.7143 14.175 60.7143ZM14.175 45.5357C13.2405 45.5357 12.327 45.2687 11.5499 44.7683C10.7729 44.2679 10.1673 43.5568 9.80967 42.7247C9.45205 41.8927 9.35847 40.9771 9.54079 40.0938C9.7231 39.2105 10.1731 38.3991 10.8339 37.7623C11.4947 37.1255 12.3366 36.6918 13.2532 36.5161C14.1698 36.3404 15.1198 36.4305 15.9832 36.7752C16.8466 37.1198 17.5845 37.7035 18.1037 38.4523C18.6229 39.2011 18.9 40.0815 18.9 40.9821C18.9 42.1898 18.4022 43.348 17.5161 44.202C16.63 45.056 15.4281 45.5357 14.175 45.5357ZM31.5 75.8929C30.5655 75.8929 29.652 75.6258 28.8749 75.1254C28.0979 74.6251 27.4923 73.9139 27.1347 73.0819C26.777 72.2498 26.6835 71.3342 26.8658 70.4509C27.0481 69.5676 27.4981 68.7563 28.1589 68.1194C28.8197 67.4826 29.6616 67.0489 30.5782 66.8732C31.4948 66.6975 32.4448 66.7877 33.3082 67.1323C34.1716 67.477 34.9095 68.0606 35.4287 68.8095C35.9479 69.5583 36.225 70.4387 36.225 71.3393C36.225 72.547 35.7272 73.7052 34.8411 74.5591C33.955 75.4131 32.7531 75.8929 31.5 75.8929ZM31.5 60.7143C30.5655 60.7143 29.652 60.4472 28.8749 59.9469C28.0979 59.4465 27.4923 58.7353 27.1347 57.9033C26.777 57.0712 26.6835 56.1557 26.8658 55.2724C27.0481 54.3891 27.4981 53.5777 28.1589 52.9409C28.8197 52.304 29.6616 51.8703 30.5782 51.6946C31.4948 51.5189 32.4448 51.6091 33.3082 51.9538C34.1716 52.2984 34.9095 52.8821 35.4287 53.6309C35.9479 54.3797 36.225 55.2601 36.225 56.1607C36.225 57.3684 35.7272 58.5266 34.8411 59.3806C33.955 60.2345 32.7531 60.7143 31.5 60.7143ZM31.5 45.5357C30.5655 45.5357 29.652 45.2687 28.8749 44.7683C28.0979 44.2679 27.4923 43.5568 27.1347 42.7247C26.777 41.8927 26.6835 40.9771 26.8658 40.0938C27.0481 39.2105 27.4981 38.3991 28.1589 37.7623C28.8197 37.1255 29.6616 36.6918 30.5782 36.5161C31.4948 36.3404 32.4448 36.4305 33.3082 36.7752C34.1716 37.1198 34.9095 37.7035 35.4287 38.4523C35.9479 39.2011 36.225 40.0815 36.225 40.9821C36.225 42.1898 35.7272 43.348 34.8411 44.202C33.955 45.056 32.7531 45.5357 31.5 45.5357ZM53.55 71.3393C53.55 72.547 53.0522 73.7052 52.1661 74.5591C51.28 75.4131 50.0781 75.8929 48.825 75.8929C47.5719 75.8929 46.37 75.4131 45.4839 74.5591C44.5978 73.7052 44.1 72.547 44.1 71.3393V56.1607C44.1 54.953 44.5978 53.7948 45.4839 52.9409C46.37 52.0869 47.5719 51.6071 48.825 51.6071C50.0781 51.6071 51.28 52.0869 52.1661 52.9409C53.0522 53.7948 53.55 54.953 53.55 56.1607V71.3393ZM48.825 45.5357C47.8905 45.5357 46.977 45.2687 46.1999 44.7683C45.4229 44.2679 44.8173 43.5568 44.4597 42.7247C44.102 41.8927 44.0085 40.9771 44.1908 40.0938C44.3731 39.2105 44.8231 38.3991 45.4839 37.7623C46.1447 37.1255 46.9866 36.6918 47.9032 36.5161C48.8198 36.3404 49.7698 36.4305 50.6332 36.7752C51.4966 37.1198 52.2345 37.7035 52.7537 38.4523C53.2729 39.2011 53.55 40.0815 53.55 40.9821C53.55 42.1898 53.0522 43.348 52.1661 44.202C51.28 45.056 50.0781 45.5357 48.825 45.5357ZM52.6267 26.4316C52.0362 27.001 51.2353 27.3211 50.4 27.3214H12.6C11.7646 27.3214 10.9634 27.0016 10.3726 26.4323C9.78187 25.863 9.45 25.0908 9.45 24.2857V12.1429C9.45 11.3377 9.78187 10.5656 10.3726 9.99628C10.9634 9.42698 11.7646 9.10714 12.6 9.10714H50.4C51.2354 9.10714 52.0367 9.42698 52.6274 9.99628C53.2181 10.5656 53.55 11.3377 53.55 12.1429V24.2857C53.5496 25.0907 53.2175 25.8626 52.6267 26.4316Z" fill="#175A61"/>
<path d="M132.824 32V9.6H144.152C146.2 9.6 148.003 9.89867 149.56 10.496C151.139 11.0933 152.461 11.9147 153.528 12.96C154.595 13.984 155.395 15.168 155.928 16.512C156.461 17.856 156.728 19.2853 156.728 20.8C156.728 22.336 156.461 23.7867 155.928 25.152C155.395 26.496 154.595 27.68 153.528 28.704C152.461 29.728 151.139 30.5387 149.56 31.136C148.003 31.712 146.2 32 144.152 32H132.824ZM136.28 29.024L136.184 28.672H143.992C145.592 28.672 146.957 28.4693 148.088 28.064C149.24 27.6587 150.179 27.0933 150.904 26.368C151.629 25.6427 152.163 24.8107 152.504 23.872C152.867 22.912 153.048 21.888 153.048 20.8C153.048 19.7333 152.867 18.7307 152.504 17.792C152.163 16.8533 151.629 16.0213 150.904 15.296C150.179 14.5493 149.24 13.9733 148.088 13.568C146.957 13.1413 145.592 12.928 143.992 12.928H136.088L136.28 12.64V29.024ZM163.132 32L174.076 9.6H178.108L188.988 32H185.18L177.66 16.576C177.468 16.1707 177.275 15.776 177.083 15.392C176.892 15.008 176.7 14.624 176.508 14.24C176.337 13.856 176.166 13.4507 175.996 13.024C175.825 12.5973 175.654 12.128 175.484 11.616L176.508 11.584C176.316 12.096 176.124 12.576 175.932 13.024C175.761 13.472 175.58 13.8987 175.388 14.304C175.196 14.7093 175.004 15.1147 174.812 15.52C174.62 15.904 174.428 16.2987 174.236 16.704L166.78 32H163.132ZM167.9 26.752L169.276 23.424H182.556L183.1 26.752H167.9ZM197.762 32V9.6H201.186L219.362 27.936L219.17 28.224C219.063 27.584 218.967 26.9013 218.882 26.176C218.818 25.4293 218.764 24.672 218.722 23.904C218.679 23.1147 218.636 22.3253 218.594 21.536C218.572 20.7253 218.551 19.936 218.53 19.168C218.53 18.4 218.53 17.664 218.53 16.96V9.6H221.986V32H218.498L200.546 14.336L200.578 13.888C200.62 14.272 200.663 14.7307 200.706 15.264C200.748 15.7973 200.802 16.3733 200.866 16.992C200.93 17.6107 200.983 18.2507 201.026 18.912C201.09 19.552 201.132 20.2027 201.154 20.864C201.196 21.504 201.218 22.112 201.218 22.688V32H197.762ZM233.893 32V28.576H239.749V13.024H233.893V9.6H249.061V13.024H243.205V28.576H249.061V32H233.893ZM260.949 32V9.6H279.541V12.928H264.405V28.672H279.541V32H260.949ZM262.837 22.176V18.848H277.781V22.176H262.837ZM290.48 32V9.6H293.936V28.672H308.912V32H290.48ZM312.395 19.52L310.859 17.76C311.883 17.1627 312.715 16.5867 313.355 16.032C314.016 15.456 314.347 14.9333 314.347 14.464C314.347 14.1013 314.219 13.8027 313.963 13.568C313.707 13.3333 313.408 13.12 313.067 12.928C312.619 12.6507 312.171 12.352 311.723 12.032C311.275 11.712 311.051 11.2427 311.051 10.624C311.051 9.83467 311.328 9.25867 311.883 8.896C312.459 8.512 313.141 8.32 313.931 8.32C314.656 8.32 315.349 8.52267 316.011 8.928C316.672 9.33333 317.205 9.87733 317.611 10.56C318.037 11.2427 318.251 12.0107 318.251 12.864C318.251 13.504 318.08 14.1547 317.739 14.816C317.397 15.456 316.939 16.0853 316.363 16.704C315.808 17.3013 315.179 17.8453 314.475 18.336C313.792 18.8053 313.099 19.2 312.395 19.52ZM336.421 32.32C334.821 32.32 333.338 32.16 331.973 31.84C330.629 31.52 329.392 31.04 328.261 30.4C327.152 29.76 326.138 28.9493 325.221 27.968L327.397 25.088C328.784 26.5173 330.192 27.5627 331.621 28.224C333.072 28.8853 334.682 29.216 336.453 29.216C337.562 29.216 338.629 29.088 339.653 28.832C340.677 28.5547 341.52 28.1493 342.181 27.616C342.842 27.0613 343.173 26.368 343.173 25.536C343.173 25.0027 342.992 24.5653 342.629 24.224C342.266 23.8827 341.786 23.6053 341.189 23.392C340.613 23.1787 339.984 23.008 339.301 22.88C338.618 22.752 337.957 22.656 337.317 22.592C336.698 22.528 336.176 22.4747 335.749 22.432C334.32 22.24 333.018 21.984 331.845 21.664C330.693 21.3227 329.701 20.896 328.869 20.384C328.058 19.872 327.429 19.2427 326.981 18.496C326.554 17.7493 326.341 16.8853 326.341 15.904C326.341 14.8587 326.586 13.9307 327.077 13.12C327.589 12.288 328.293 11.5947 329.189 11.04C330.106 10.464 331.162 10.0267 332.357 9.728C333.573 9.42933 334.885 9.28 336.293 9.28C337.786 9.28 339.152 9.42933 340.389 9.728C341.626 10.0267 342.725 10.4747 343.685 11.072C344.666 11.648 345.477 12.3627 346.117 13.216L343.813 15.744C343.216 15.0187 342.522 14.4107 341.733 13.92C340.944 13.408 340.08 13.024 339.141 12.768C338.224 12.512 337.242 12.384 336.197 12.384C335.045 12.384 334.01 12.512 333.093 12.768C332.176 13.024 331.45 13.3867 330.917 13.856C330.384 14.304 330.117 14.8587 330.117 15.52C330.117 16.096 330.277 16.5867 330.597 16.992C330.938 17.3973 331.408 17.7387 332.005 18.016C332.602 18.272 333.317 18.4853 334.149 18.656C335.002 18.8267 335.941 18.976 336.965 19.104C338.245 19.2533 339.482 19.4453 340.677 19.68C341.872 19.9147 342.938 20.2453 343.877 20.672C344.816 21.0773 345.562 21.632 346.117 22.336C346.672 23.04 346.949 23.9573 346.949 25.088C346.949 26.5387 346.512 27.808 345.637 28.896C344.762 29.984 343.536 30.8267 341.957 31.424C340.4 32.0213 338.554 32.32 336.421 32.32ZM144.024 72.32C142.232 72.32 140.547 72.0533 138.968 71.52C137.411 70.9653 136.035 70.1867 134.84 69.184C133.667 68.16 132.749 66.944 132.088 65.536C131.427 64.1067 131.096 62.528 131.096 60.8C131.096 59.1573 131.437 57.6427 132.12 56.256C132.824 54.8693 133.773 53.664 134.968 52.64C136.163 51.616 137.539 50.8267 139.096 50.272C140.653 49.696 142.296 49.408 144.024 49.408C145.475 49.408 146.861 49.6 148.184 49.984C149.507 50.3467 150.701 50.816 151.768 51.392C152.856 51.9467 153.72 52.5333 154.36 53.152L152.312 56.064C151.544 55.424 150.723 54.8587 149.848 54.368C148.973 53.8773 148.024 53.4933 147 53.216C145.997 52.9387 144.899 52.8 143.704 52.8C142.573 52.8 141.464 52.992 140.376 53.376C139.309 53.7387 138.339 54.272 137.464 54.976C136.589 55.6587 135.896 56.5013 135.384 57.504C134.872 58.4853 134.616 59.584 134.616 60.8C134.616 62.144 134.883 63.328 135.416 64.352C135.949 65.3547 136.675 66.1973 137.592 66.88C138.509 67.5627 139.544 68.0853 140.696 68.448C141.848 68.7893 143.043 68.96 144.28 68.96C145.56 68.96 146.701 68.8 147.704 68.48C148.707 68.1387 149.603 67.7227 150.392 67.232C151.181 66.7413 151.896 66.2613 152.536 65.792L154.2 68.672C153.603 69.1627 152.781 69.696 151.736 70.272C150.712 70.848 149.539 71.3387 148.216 71.744C146.915 72.128 145.517 72.32 144.024 72.32ZM161.35 72L172.294 49.6H176.326L187.206 72H183.398L175.878 56.576C175.686 56.1707 175.494 55.776 175.302 55.392C175.11 55.008 174.918 54.624 174.726 54.24C174.556 53.856 174.385 53.4507 174.214 53.024C174.044 52.5973 173.873 52.128 173.702 51.616L174.726 51.584C174.534 52.096 174.342 52.576 174.15 53.024C173.98 53.472 173.798 53.8987 173.606 54.304C173.414 54.7093 173.222 55.1147 173.03 55.52C172.838 55.904 172.646 56.2987 172.454 56.704L164.998 72H161.35ZM166.118 66.752L167.494 63.424H180.774L181.318 66.752H166.118ZM195.98 72V49.6H199.436V68.672H214.412V72H195.98ZM235.305 72.32C233.513 72.32 231.828 72.0533 230.249 71.52C228.692 70.9653 227.316 70.1867 226.121 69.184C224.948 68.16 224.031 66.944 223.369 65.536C222.708 64.1067 222.377 62.528 222.377 60.8C222.377 59.1573 222.719 57.6427 223.401 56.256C224.105 54.8693 225.055 53.664 226.249 52.64C227.444 51.616 228.82 50.8267 230.377 50.272C231.935 49.696 233.577 49.408 235.305 49.408C236.756 49.408 238.143 49.6 239.465 49.984C240.788 50.3467 241.983 50.816 243.049 51.392C244.137 51.9467 245.001 52.5333 245.641 53.152L243.593 56.064C242.825 55.424 242.004 54.8587 241.129 54.368C240.255 53.8773 239.305 53.4933 238.281 53.216C237.279 52.9387 236.18 52.8 234.985 52.8C233.855 52.8 232.745 52.992 231.657 53.376C230.591 53.7387 229.62 54.272 228.745 54.976C227.871 55.6587 227.177 56.5013 226.665 57.504C226.153 58.4853 225.897 59.584 225.897 60.8C225.897 62.144 226.164 63.328 226.697 64.352C227.231 65.3547 227.956 66.1973 228.873 66.88C229.791 67.5627 230.825 68.0853 231.977 68.448C233.129 68.7893 234.324 68.96 235.561 68.96C236.841 68.96 237.983 68.8 238.985 68.48C239.988 68.1387 240.884 67.7227 241.673 67.232C242.463 66.7413 243.177 66.2613 243.817 65.792L245.481 68.672C244.884 69.1627 244.063 69.696 243.017 70.272C241.993 70.848 240.82 71.3387 239.497 71.744C238.196 72.128 236.799 72.32 235.305 72.32ZM266.392 72.192C264.13 72.192 262.157 71.7227 260.472 70.784C258.786 69.824 257.474 68.5227 256.536 66.88C255.597 65.2373 255.128 63.3707 255.128 61.28V49.568H258.584V61.152C258.584 62.624 258.925 63.9467 259.608 65.12C260.312 66.272 261.25 67.1787 262.424 67.84C263.618 68.5013 264.941 68.832 266.392 68.832C267.928 68.832 269.293 68.5013 270.488 67.84C271.682 67.1787 272.621 66.272 273.304 65.12C274.008 63.9467 274.36 62.624 274.36 61.152V49.568H277.656V61.28C277.656 63.3707 277.186 65.2373 276.248 66.88C275.309 68.5227 273.997 69.824 272.312 70.784C270.626 71.7227 268.653 72.192 266.392 72.192ZM288.918 72V49.6H292.374V68.672H307.35V72H288.918ZM314.788 72L325.732 49.6H329.764L340.644 72H336.836L329.316 56.576C329.124 56.1707 328.932 55.776 328.74 55.392C328.548 55.008 328.356 54.624 328.164 54.24C327.993 53.856 327.822 53.4507 327.652 53.024C327.481 52.5973 327.31 52.128 327.14 51.616L328.164 51.584C327.972 52.096 327.78 52.576 327.588 53.024C327.417 53.472 327.236 53.8987 327.044 54.304C326.852 54.7093 326.66 55.1147 326.468 55.52C326.276 55.904 326.084 56.2987 325.892 56.704L318.436 72H314.788ZM319.556 66.752L320.932 63.424H334.212L334.756 66.752H319.556ZM353.712 72V52.928H345.2V49.6H365.872V52.928H357.168V72H353.712ZM385.726 72.32C383.742 72.32 381.928 72.032 380.286 71.456C378.643 70.8587 377.214 70.0373 375.998 68.992C374.782 67.9253 373.843 66.6987 373.182 65.312C372.52 63.904 372.19 62.4 372.19 60.8C372.19 59.2 372.52 57.7067 373.182 56.32C373.843 54.912 374.782 53.6853 375.998 52.64C377.214 51.5733 378.643 50.752 380.286 50.176C381.928 49.5787 383.742 49.28 385.726 49.28C387.688 49.28 389.491 49.5787 391.134 50.176C392.776 50.752 394.206 51.5733 395.422 52.64C396.638 53.6853 397.576 54.912 398.238 56.32C398.92 57.7067 399.262 59.2 399.262 60.8C399.262 62.4 398.92 63.904 398.238 65.312C397.576 66.6987 396.638 67.9253 395.422 68.992C394.206 70.0373 392.776 70.8587 391.134 71.456C389.491 72.032 387.688 72.32 385.726 72.32ZM385.726 68.96C387.198 68.96 388.542 68.7573 389.758 68.352C390.974 67.9253 392.03 67.3493 392.926 66.624C393.822 65.8773 394.515 65.0133 395.006 64.032C395.496 63.0293 395.742 61.952 395.742 60.8C395.742 59.648 395.496 58.5813 395.006 57.6C394.515 56.5973 393.822 55.7333 392.926 55.008C392.03 54.2613 390.974 53.6853 389.758 53.28C388.542 52.8533 387.198 52.64 385.726 52.64C384.254 52.64 382.899 52.8533 381.662 53.28C380.446 53.6853 379.39 54.2613 378.494 55.008C377.598 55.7333 376.904 56.5973 376.414 57.6C375.944 58.5813 375.71 59.648 375.71 60.8C375.71 61.952 375.944 63.0293 376.414 64.032C376.904 65.0133 377.598 65.8773 378.494 66.624C379.39 67.3493 380.446 67.9253 381.662 68.352C382.899 68.7573 384.254 68.96 385.726 68.96ZM409.168 72V49.6H422.256C423.578 49.6 424.784 49.9093 425.872 50.528C426.981 51.1253 427.866 51.9467 428.528 52.992C429.189 54.0373 429.52 55.2 429.52 56.48C429.52 57.824 429.157 59.0507 428.432 60.16C427.706 61.248 426.746 62.1227 425.552 62.784C424.357 63.424 423.045 63.744 421.616 63.744H412.624V72H409.168ZM426.512 72L418.896 61.888L422.576 61.088L430.832 72.032L426.512 72ZM412.624 60.416H421.296C422.106 60.416 422.853 60.2347 423.536 59.872C424.24 59.5093 424.794 59.0293 425.2 58.432C425.626 57.8347 425.84 57.184 425.84 56.48C425.84 55.8187 425.626 55.2213 425.2 54.688C424.794 54.1547 424.24 53.728 423.536 53.408C422.853 53.088 422.106 52.928 421.296 52.928H412.624V60.416Z" fill="#175A61"/>
<rect x="88" width="25" height="85" fill="#0A2426"/>
</svg>
